<mxfile host="Electron" agent="Mozilla/5.0 (Windows NT 10.0; Win64; x64) AppleWebKit/537.36 (KHTML, like Gecko) draw.io/27.0.2 Chrome/134.0.6998.205 Electron/35.3.0 Safari/537.36" version="27.0.2">
  <diagram name="Page-1" id="gzEpPTQhpuKWW6BhNULQ">
    <mxGraphModel dx="780" dy="545" grid="1" gridSize="10" guides="1" tooltips="1" connect="1" arrows="1" fold="1" page="1" pageScale="1" pageWidth="650" pageHeight="250" math="0" shadow="0">
      <root>
        <mxCell id="0" />
        <mxCell id="1" parent="0" />
        <mxCell id="l6Q6bGeDVWXWdTxFshC6-9" style="edgeStyle=orthogonalEdgeStyle;rounded=0;orthogonalLoop=1;jettySize=auto;html=1;exitX=1;exitY=0.5;exitDx=0;exitDy=0;entryX=0;entryY=0.5;entryDx=0;entryDy=0;" parent="1" source="l6Q6bGeDVWXWdTxFshC6-4" target="l6Q6bGeDVWXWdTxFshC6-5" edge="1">
          <mxGeometry relative="1" as="geometry" />
        </mxCell>
        <mxCell id="l6Q6bGeDVWXWdTxFshC6-4" value="" style="ellipse;whiteSpace=wrap;html=1;" parent="1" vertex="1">
          <mxGeometry x="20" y="110" width="30" height="30" as="geometry" />
        </mxCell>
        <mxCell id="l6Q6bGeDVWXWdTxFshC6-10" style="edgeStyle=orthogonalEdgeStyle;rounded=0;orthogonalLoop=1;jettySize=auto;html=1;exitX=1;exitY=0.5;exitDx=0;exitDy=0;entryX=0;entryY=0.5;entryDx=0;entryDy=0;" parent="1" source="l6Q6bGeDVWXWdTxFshC6-5" target="l6Q6bGeDVWXWdTxFshC6-7" edge="1">
          <mxGeometry relative="1" as="geometry" />
        </mxCell>
        <mxCell id="l6Q6bGeDVWXWdTxFshC6-5" value="&lt;font style=&quot;font-size: 8px;&quot;&gt;return screen with data&lt;/font&gt;" style="rounded=0;whiteSpace=wrap;html=1;" parent="1" vertex="1">
          <mxGeometry x="90" y="100" width="120" height="50" as="geometry" />
        </mxCell>
        <mxCell id="l6Q6bGeDVWXWdTxFshC6-23" style="edgeStyle=orthogonalEdgeStyle;rounded=0;orthogonalLoop=1;jettySize=auto;html=1;entryX=0.5;entryY=1;entryDx=0;entryDy=0;" parent="1" source="l6Q6bGeDVWXWdTxFshC6-6" target="l6Q6bGeDVWXWdTxFshC6-5" edge="1">
          <mxGeometry relative="1" as="geometry">
            <Array as="points">
              <mxPoint x="560" y="210" />
              <mxPoint x="150" y="210" />
            </Array>
          </mxGeometry>
        </mxCell>
        <mxCell id="l6Q6bGeDVWXWdTxFshC6-24" value="pass_previous_result(None)" style="edgeLabel;html=1;align=center;verticalAlign=middle;resizable=0;points=[];" parent="l6Q6bGeDVWXWdTxFshC6-23" vertex="1" connectable="0">
          <mxGeometry x="-0.0363" relative="1" as="geometry">
            <mxPoint x="-2" y="12" as="offset" />
          </mxGeometry>
        </mxCell>
        <mxCell id="l6Q6bGeDVWXWdTxFshC6-6" value="&lt;span style=&quot;font-size: 8px;&quot;&gt;return screen with text&lt;br&gt;&quot;You answered incorrectly!&quot;&lt;/span&gt;" style="rounded=0;whiteSpace=wrap;html=1;" parent="1" vertex="1">
          <mxGeometry x="500" y="100" width="120" height="50" as="geometry" />
        </mxCell>
        <mxCell id="l6Q6bGeDVWXWdTxFshC6-11" style="edgeStyle=orthogonalEdgeStyle;rounded=0;orthogonalLoop=1;jettySize=auto;html=1;exitX=1;exitY=0.5;exitDx=0;exitDy=0;entryX=0;entryY=0.5;entryDx=0;entryDy=0;" parent="1" source="l6Q6bGeDVWXWdTxFshC6-7" target="l6Q6bGeDVWXWdTxFshC6-6" edge="1">
          <mxGeometry relative="1" as="geometry" />
        </mxCell>
        <mxCell id="l6Q6bGeDVWXWdTxFshC6-14" value="pass_previous_result(False)" style="edgeLabel;html=1;align=center;verticalAlign=middle;resizable=0;points=[];" parent="l6Q6bGeDVWXWdTxFshC6-11" vertex="1" connectable="0">
          <mxGeometry x="0.1548" relative="1" as="geometry">
            <mxPoint x="-1" y="15" as="offset" />
          </mxGeometry>
        </mxCell>
        <mxCell id="l6Q6bGeDVWXWdTxFshC6-21" value="no" style="edgeLabel;html=1;align=center;verticalAlign=middle;resizable=0;points=[];" parent="l6Q6bGeDVWXWdTxFshC6-11" vertex="1" connectable="0">
          <mxGeometry x="-0.4592" y="2" relative="1" as="geometry">
            <mxPoint x="-27" y="2" as="offset" />
          </mxGeometry>
        </mxCell>
        <mxCell id="l6Q6bGeDVWXWdTxFshC6-7" value="" style="rhombus;whiteSpace=wrap;html=1;" parent="1" vertex="1">
          <mxGeometry x="270" y="115" width="20" height="20" as="geometry" />
        </mxCell>
        <mxCell id="l6Q6bGeDVWXWdTxFshC6-13" value="&lt;span style=&quot;text-wrap-mode: wrap;&quot;&gt;user responded correctly?&lt;/span&gt;" style="text;html=1;align=center;verticalAlign=middle;resizable=0;points=[];autosize=1;strokeColor=none;fillColor=none;fontSize=7;" parent="1" vertex="1">
          <mxGeometry x="229" y="140" width="100" height="20" as="geometry" />
        </mxCell>
        <mxCell id="l6Q6bGeDVWXWdTxFshC6-15" style="edgeStyle=orthogonalEdgeStyle;rounded=0;orthogonalLoop=1;jettySize=auto;html=1;entryX=0.529;entryY=0.003;entryDx=0;entryDy=0;entryPerimeter=0;" parent="1" source="l6Q6bGeDVWXWdTxFshC6-7" target="l6Q6bGeDVWXWdTxFshC6-5" edge="1">
          <mxGeometry relative="1" as="geometry">
            <Array as="points">
              <mxPoint x="280" y="30" />
              <mxPoint x="154" y="30" />
            </Array>
          </mxGeometry>
        </mxCell>
        <mxCell id="l6Q6bGeDVWXWdTxFshC6-20" value="yes" style="edgeLabel;html=1;align=center;verticalAlign=middle;resizable=0;points=[];" parent="l6Q6bGeDVWXWdTxFshC6-15" vertex="1" connectable="0">
          <mxGeometry x="-0.8233" relative="1" as="geometry">
            <mxPoint as="offset" />
          </mxGeometry>
        </mxCell>
        <mxCell id="l6Q6bGeDVWXWdTxFshC6-22" value="pass_previous_result(True)" style="edgeLabel;html=1;align=center;verticalAlign=middle;resizable=0;points=[];" parent="l6Q6bGeDVWXWdTxFshC6-15" vertex="1" connectable="0">
          <mxGeometry x="0.1462" y="-1" relative="1" as="geometry">
            <mxPoint x="14" y="-12" as="offset" />
          </mxGeometry>
        </mxCell>
      </root>
    </mxGraphModel>
  </diagram>
</mxfile>
